# Blender 4.2.3 LTS
# www.blender.org
mtllib arrow.mtl
o Cube.001
v 1.000000 1.000000 -3.023480
v 1.000000 -1.000000 -3.023480
v 1.000000 1.000000 3.023480
v 1.000000 -1.000000 3.023480
v -1.000000 1.000000 -3.023480
v -1.000000 -1.000000 -3.023480
v -1.000000 1.000000 3.023480
v -1.000000 -1.000000 3.023480
v 1.000000 -2.607781 -3.023480
v -1.000000 -2.607781 -3.023480
v 1.000000 2.607781 -3.023480
v -1.000000 2.607781 -3.023480
v 0.000000 -2.607781 -3.023480
v 1.000000 -0.000000 -6.570500
v -1.000000 -0.000000 -6.570500
v 0.000000 2.607781 -3.023480
v 0.000000 -0.000000 -6.570500
v 0.000000 -1.000000 3.023480
v 0.000000 1.000000 -3.023480
v 0.000000 -1.000000 -3.023480
v 0.000000 1.000000 3.023480
vn -0.0000 1.0000 -0.0000
vn -0.0000 -0.0000 1.0000
vn -1.0000 -0.0000 -0.0000
vn -0.0000 -1.0000 -0.0000
vn 1.0000 -0.0000 -0.0000
vn -0.0000 0.8057 -0.5923
vn -0.0000 -0.8057 -0.5923
vt 0.497624 0.610394
vt 0.400257 0.610394
vt 0.400257 0.031793
vt 0.497624 0.031793
vt 0.304302 0.031793
vt 0.653038 0.031793
vt 0.844297 0.031793
vt 0.844297 0.610394
vt 0.653038 0.610394
vt 0.997797 0.610394
vt 0.748398 0.950170
vt 0.400257 0.950170
vt 0.497624 0.950170
vt 0.280641 0.437801
vt 0.280641 0.524070
vt 0.142267 0.524070
vt 0.142267 0.437801
vt 0.003486 0.610394
vt 0.003486 0.524070
vt 0.142267 0.610394
vt 0.998298 0.610394
vt 0.748937 0.950170
vt 0.304302 0.950170
vt 0.304302 0.610394
vt 0.280641 0.610394
vt 0.003486 0.437801
s 0
usemtl Material.001
f 1/1/1 19/2/1 21/3/1 3/4/1
f 4/5/2 3/4/2 21/4/2 18/5/2
f 8/6/3 7/7/3 5/8/3 6/9/3
f 6/1/4 20/2/4 18/3/4 8/4/4
f 2/8/5 1/9/5 3/6/5 4/7/5
f 6/9/3 5/8/3 12/10/3 15/11/3 10/1/3
f 17/12/6 16/2/6 11/1/6 14/13/6
f 2/14/2 20/15/2 13/16/2 9/17/2
f 5/18/2 19/19/2 16/16/2 12/20/2
f 1/9/5 2/8/5 9/21/5 14/22/5 11/1/5
f 13/2/7 17/12/7 14/23/7 9/24/7
f 10/1/7 15/13/7 17/12/7 13/2/7
f 15/23/6 12/24/6 16/2/6 17/12/6
f 21/3/1 19/2/1 5/24/1 7/5/1
f 18/5/2 21/4/2 7/4/2 8/5/2
f 13/16/2 20/15/2 6/25/2 10/20/2
f 18/3/4 20/2/4 2/24/4 4/5/4
f 16/16/2 19/19/2 1/26/2 11/17/2
