# Blender 4.4.0
# www.blender.org
o Navmesh
v 0.180042 0.000000 3.940187
v 3.088865 0.000000 3.940187
v 0.180042 0.000000 -4.233612
v 3.088865 0.000000 -4.233612
v 0.180042 0.000000 -2.112731
v 0.180042 0.000000 -1.602811
v 0.180042 0.000000 1.314278
v 0.180042 0.000000 1.836841
v 3.088865 0.000000 1.836841
v 3.088865 0.000000 1.314278
v 3.088865 0.000000 -1.602811
v 3.088865 0.000000 -2.112731
v -4.792763 2.466673 3.940187
v -4.792763 2.466673 -4.233612
v -4.792763 2.466673 -2.112731
v -4.792763 2.466673 1.836841
v 8.074240 2.672228 3.770927
v 8.074240 2.672228 -4.059460
v 17.022987 2.672228 3.770927
v 17.022987 2.672228 -4.059460
v 10.675660 2.672228 -4.059460
v 10.675660 2.672228 3.770927
v 8.745056 2.672228 1.314278
v 8.745056 2.672228 -1.602811
v 17.022257 2.672228 0.908058
v 17.022257 2.672228 -1.198951
v 10.674930 2.672228 1.311918
v 10.674930 2.672228 -1.602811
v 17.293591 2.672228 0.908058
v 17.293591 2.672228 -1.198951
v 18.691372 2.672228 0.908058
v 18.691372 2.672228 -1.198951
v 17.293591 2.672228 -4.060291
v 18.691372 2.672228 -4.060291
v 17.293591 2.672228 3.785842
v 18.691372 2.672228 3.785842
v 17.022621 2.672228 2.339493
v 8.097202 2.672228 1.314127
v 10.675295 2.672228 2.541422
v 8.097202 2.672228 -1.602660
v 17.022621 2.672228 -2.629205
v 10.675295 2.672228 -2.831135
v -8.300296 2.466673 3.940187
v -8.300296 2.466673 -4.233612
v -8.300296 2.466673 -2.112731
v -8.300296 2.466673 1.836841
v -5.289403 2.466673 1.836841
v -5.289403 2.466673 -2.112731
v -5.289403 2.466673 -4.233612
v -5.289403 2.466673 3.940187
v -8.300296 2.466673 8.856403
v -5.289403 2.466673 8.856403
v -5.289403 2.466673 4.219140
v -8.300296 2.466673 4.219140
v -8.300296 2.466673 6.243794
v -5.289403 2.466673 6.243794
v -0.098443 4.885891 4.219140
v -0.098443 4.885891 6.243794
v 2.456731 4.885891 4.219140
v 2.456731 4.885891 6.243794
v -0.098443 4.885891 8.863999
v 2.456731 4.885891 8.863999
v 2.456731 4.885891 6.556734
v -0.098443 4.885891 6.556734
v -5.386590 7.468967 8.863999
v -5.386590 7.468967 6.556734
v -9.066082 7.468967 8.863999
v -9.066082 7.468967 6.556734
v -5.386590 7.468967 4.239699
v -9.066082 7.468967 4.239699
v -0.989972 9.619694 6.556734
v -0.989972 9.619694 4.239699
v 2.666393 9.619694 6.556734
v 2.666393 9.619694 4.239699
v -0.989972 9.619694 8.995633
v 2.666393 9.619694 8.995633
v 2.666393 9.619694 6.723597
v -0.989972 9.619694 6.723597
v -5.543692 11.931589 8.995633
v -5.543692 11.931589 6.723597
v -8.983467 11.931589 8.995633
v -8.983467 11.931589 6.723597
v -5.543692 11.931589 4.225425
v -8.983467 11.931589 4.225425
v -8.776248 11.931589 8.995633
v -6.588331 11.931589 8.995633
v -6.588332 11.931589 6.723597
v -8.776248 11.931589 6.723597
v -6.588332 11.931589 4.225425
v -8.776248 11.931589 4.225425
v -6.578123 11.931589 3.348473
v -8.765471 11.931589 3.348473
v -6.276168 11.931589 3.348473
v -8.844673 11.931589 3.348473
v -6.276168 11.931589 -3.669070
v -8.844673 11.931589 -3.669070
v -8.773557 7.468967 8.863999
v -6.583570 7.468967 8.863999
v -6.583570 7.468967 6.556734
v -8.773557 7.468967 6.556734
v -6.583570 7.468967 4.239699
v -8.773557 7.468967 4.239699
v -6.579003 7.468967 3.362746
v -8.770826 7.468967 3.362746
v -6.579003 7.468967 -23.331577
v -8.770826 7.468967 -23.331577
v -6.709512 7.468967 -23.331577
v -8.640318 7.468967 -23.331577
v -6.709512 7.468967 -23.700989
v -8.640318 7.468967 -23.700989
v -6.502956 7.468967 -23.700989
v -8.846874 7.468967 -23.700989
v -6.502956 7.468967 -27.027552
v -8.846874 7.468967 -27.027552
v -4.040974 7.468967 -23.700989
v -4.040974 7.468967 -27.027552
v -5.206990 -2.132481 -1.602810
v -5.206990 -2.132481 1.314279
v -7.829076 -2.132481 -1.602810
v -7.829076 -2.132481 1.314279
v -5.206990 -2.132481 4.221432
v -7.829076 -2.132481 4.221432
vn -0.0000 1.0000 -0.0000
vn 0.4444 0.8958 -0.0000
vn -0.4272 0.9042 -0.0000
vn -0.4224 0.9064 -0.0000
vn 0.4389 0.8985 -0.0000
vn -0.4394 0.8983 -0.0000
vn 0.4527 0.8917 -0.0000
vn -0.3681 0.9298 -0.0000
vt 0.000000 0.749519
vt 1.000000 0.749519
vt 1.000000 1.000000
vt 0.000000 1.000000
vt 0.000000 0.000000
vt 1.000000 0.000000
vt 1.000000 0.283065
vt 0.000000 0.283065
vt 1.000000 0.344780
vt 0.000000 0.344780
vt 1.000000 0.689296
vt 0.000000 0.689296
vt 1.000000 0.459619
vt 1.000000 0.402200
vt 1.000000 0.631877
vt 1.000000 0.574457
vt 0.000000 0.283064
s 0
f 5/1/1 12/2/1 4/3/1 3/4/1
f 1/5/1 2/6/1 9/7/1 8/8/1
f 8/8/1 9/7/1 10/9/1 7/10/1
f 7/10/1 10/9/1 11/11/1 6/12/1
f 6/12/1 11/11/1 12/2/1 5/1/1
f 5/1/2 3/4/2 14/4/2 15/1/2
f 1/5/2 8/8/2 16/8/2 13/5/2
f 23/13/1 38/14/1 39/14/1 27/13/1
f 40/15/1 24/16/1 28/16/1 42/15/1
f 39/14/1 22/9/1 19/9/1 37/14/1
f 38/14/1 17/9/1 22/9/1 39/14/1
f 24/16/1 23/13/1 27/13/1 28/16/1
f 42/15/1 28/16/1 26/16/1 41/15/1
f 28/16/1 27/13/1 25/13/1 26/16/1
f 26/16/1 25/13/1 29/13/1 30/16/1
f 30/16/1 29/13/1 31/13/1 32/16/1
f 30/16/1 32/16/1 34/16/1 33/16/1
f 31/13/1 29/13/1 35/13/1 36/13/1
f 27/13/1 39/14/1 37/14/1 25/13/1
f 23/9/3 24/11/3 11/11/3 10/9/3
f 21/11/1 42/15/1 41/15/1 20/11/1
f 18/11/1 40/15/1 42/15/1 21/11/1
f 47/5/1 48/5/1 45/5/1 46/5/1
f 48/1/1 49/4/1 44/4/1 45/1/1
f 50/5/1 47/17/1 46/8/1 43/5/1
f 13/5/1 16/8/1 47/17/1 50/5/1
f 15/1/1 14/4/1 49/4/1 48/1/1
f 16/5/1 15/5/1 48/5/1 47/5/1
f 56/5/1 55/5/1 51/5/1 52/5/1
f 50/5/1 43/5/1 54/5/1 53/5/1
f 53/5/1 54/5/1 55/5/1 56/5/1
f 53/5/4 56/5/4 58/5/4 57/5/4
f 57/5/1 58/5/1 60/5/1 59/5/1
f 63/5/1 64/5/1 61/5/1 62/5/1
f 60/5/1 58/5/1 64/5/1 63/5/1
f 61/5/5 64/5/5 66/5/5 65/5/5
f 97/5/1 100/5/1 68/5/1 67/5/1
f 99/5/1 66/5/1 69/5/1 101/5/1
f 69/5/6 66/5/6 71/5/6 72/5/6
f 72/5/1 71/5/1 73/5/1 74/5/1
f 77/5/1 78/5/1 75/5/1 76/5/1
f 73/5/1 71/5/1 78/5/1 77/5/1
f 75/5/7 78/5/7 80/5/7 79/5/7
f 85/5/1 88/5/1 82/5/1 81/5/1
f 87/5/1 80/5/1 83/5/1 89/5/1
f 82/5/1 88/5/1 90/5/1 84/5/1
f 88/5/1 87/5/1 89/5/1 90/5/1
f 79/5/1 80/5/1 87/5/1 86/5/1
f 86/5/1 87/5/1 88/5/1 85/5/1
f 90/5/1 89/5/1 91/5/1 92/5/1
f 92/5/1 91/5/1 93/5/1 94/5/1
f 94/5/1 93/5/1 95/5/1 96/5/1
f 68/5/1 100/5/1 102/5/1 70/5/1
f 100/5/1 99/5/1 101/5/1 102/5/1
f 65/5/1 66/5/1 99/5/1 98/5/1
f 98/5/1 99/5/1 100/5/1 97/5/1
f 102/5/1 101/5/1 103/5/1 104/5/1
f 104/5/1 103/5/1 105/5/1 106/5/1
f 106/5/1 105/5/1 107/5/1 108/5/1
f 108/5/1 107/5/1 109/5/1 110/5/1
f 110/5/1 109/5/1 111/5/1 112/5/1
f 112/5/1 111/5/1 113/5/1 114/5/1
f 113/5/1 111/5/1 115/5/1 116/5/1
f 7/10/8 6/12/8 117/12/8 118/10/8
f 118/10/1 117/12/1 119/12/1 120/10/1
f 118/10/1 120/10/1 122/10/1 121/10/1
